<?xml version="1.0" encoding="UTF-8"?>
<svg version="1.1" viewBox="0 0 24 24" xmlns="http://www.w3.org/2000/svg" xmlns:xlink="http://www.w3.org/1999/xlink">
    <!--Generated by IJSVG (https://github.com/iconjar/IJSVG)-->
    <g stroke-linecap="round" stroke-width="2" stroke="#FFF" fill="none" stroke-linejoin="round">
        <path d="M10,13l-2.69032e-08,-3.59665e-08c1.65403,2.21125 4.78747,2.66297 6.99872,1.00893c0.191404,-0.143172 0.372295,-0.299884 0.541282,-0.468932l3,-3l2.12649e-07,-2.20172e-07c1.91839,-1.98626 1.86338,-5.15161 -0.122882,-7.07c-1.93762,-1.87141 -5.0095,-1.87141 -6.94712,4.25299e-07l-1.72,1.71"/>
        <path d="M14,11l-5.64091e-08,-7.54125e-08c-1.65403,-2.21125 -4.78747,-2.66297 -6.99872,-1.00893c-0.191404,0.143172 -0.372295,0.299884 -0.541282,0.468932l-3,3l-1.02237e-07,1.05854e-07c-1.91839,1.98626 -1.86338,5.15161 0.122882,7.07c1.93762,1.87141 5.0095,1.87141 6.94712,-2.04474e-07l1.71,-1.71"/>
    </g>
</svg>