<?xml version="1.0" encoding="UTF-8"?>
<svg version="1.1" viewBox="0 0 24 24" xmlns="http://www.w3.org/2000/svg" xmlns:xlink="http://www.w3.org/1999/xlink">
    <!--Generated by IJSVG (https://github.com/iconjar/IJSVG)-->
    <path d="M0,0h24v24h-24Z" fill="none"/>
    <path fill="#ffffff" d="M6.94,5l1.15814e-08,-2.34374e-05c-0.000539341,1.10457 -0.896407,1.99956 -2.00098,1.99902c-1.10457,-0.000539341 -1.99956,-0.896407 -1.99902,-2.00098l-1.16667e-08,2.36123e-05c0.000539244,-1.10457 0.896407,-1.99956 2.00098,-1.99902c1.10457,0.000539244 1.99956,0.896407 1.99902,2.00098Zm0.06,3.48h-4v12.52h4v-12.52Zm6.32,0h-3.98v12.52h3.94v-6.57c0,-3.66 4.77,-4 4.77,0v6.57h3.95v-7.93c0,-6.17 -7.06,-5.94 -8.72,-2.91l0.04,-1.68Z"/>
</svg>