<?xml version="1.0" encoding="UTF-8"?>
<!-- Generator: Adobe Illustrator 16.0.0, SVG Export Plug-In . SVG Version: 6.00 Build 0)  -->
<!DOCTYPE svg PUBLIC "-//W3C//DTD SVG 1.1//EN" "http://www.w3.org/Graphics/SVG/1.1/DTD/svg11.dtd">
<svg version="1.1" id="Layer_1" xmlns="http://www.w3.org/2000/svg" xmlns:xlink="http://www.w3.org/1999/xlink" x="0px" y="0px" width="176.669px" height="202.261px" viewBox="0 0 176.669 202.261" enable-background="new 0 0 176.669 202.261" xml:space="preserve">
<path fill="#FFFFFF" d="M172.389,196.708c0.08-0.093,0.162-0.186,0.239-0.282c0.118-0.147,0.229-0.298,0.336-0.449  c0.08-0.112,0.16-0.225,0.235-0.34c0.091-0.141,0.176-0.283,0.26-0.428c0.08-0.139,0.161-0.277,0.234-0.421  c0.065-0.127,0.126-0.257,0.187-0.387c0.076-0.164,0.15-0.33,0.219-0.501c0.047-0.118,0.089-0.238,0.132-0.359  c0.064-0.181,0.126-0.363,0.18-0.55c0.036-0.123,0.066-0.248,0.097-0.373c0.045-0.182,0.089-0.362,0.123-0.548  c0.028-0.15,0.048-0.302,0.069-0.452c0.021-0.161,0.047-0.321,0.061-0.485c0.019-0.192,0.024-0.387,0.03-0.581  c0.003-0.102,0.015-0.201,0.015-0.304c0-0.026-0.003-0.053-0.003-0.079c-0.002-0.216-0.018-0.432-0.033-0.646  c-0.009-0.113-0.012-0.229-0.022-0.341c-0.021-0.19-0.056-0.38-0.087-0.569c-0.023-0.138-0.041-0.276-0.069-0.411  c-0.029-0.139-0.07-0.275-0.106-0.413c-0.047-0.184-0.092-0.368-0.147-0.547c-0.03-0.091-0.067-0.18-0.099-0.27  c-0.078-0.223-0.158-0.444-0.252-0.658c-0.031-0.072-0.069-0.142-0.103-0.213c-0.106-0.229-0.216-0.454-0.339-0.674  c-0.01-0.017-0.017-0.036-0.027-0.054l-38.103-67.116c8.611-12.145,13.546-26.909,13.546-42.574  c0-40.556-32.994-73.549-73.55-73.549c-23.13,0-44.457,10.567-58.505,28.992C7.065,44.03,1.864,59.438,1.864,75.683v114.565  c0,5.455,4.421,9.879,9.877,9.879h153.186c0.026,0,0.053-0.004,0.08-0.004c0.217-0.002,0.434-0.018,0.65-0.033  c0.112-0.008,0.224-0.011,0.334-0.022c0.197-0.021,0.392-0.056,0.588-0.09c0.131-0.021,0.263-0.038,0.392-0.065  c0.148-0.031,0.296-0.075,0.444-0.114c0.172-0.045,0.346-0.086,0.514-0.14c0.104-0.033,0.207-0.076,0.311-0.113  c0.208-0.074,0.415-0.147,0.616-0.235c0.086-0.037,0.17-0.082,0.255-0.122c0.213-0.101,0.426-0.203,0.63-0.317  c0.021-0.012,0.042-0.021,0.063-0.032c0.08-0.046,0.152-0.099,0.231-0.146c0.176-0.107,0.352-0.215,0.52-0.331  c0.131-0.091,0.255-0.188,0.38-0.284c0.124-0.096,0.248-0.189,0.368-0.29c0.144-0.121,0.279-0.249,0.415-0.377  c0.092-0.088,0.186-0.175,0.275-0.267C172.13,197.002,172.261,196.856,172.389,196.708z M32.615,43.104  C42.896,29.621,58.494,21.889,75.41,21.889c29.661,0,53.794,24.132,53.794,53.794c0,8.06-1.787,15.793-5.036,22.765L97.713,51.849  c-2.692-4.746-8.724-6.405-13.468-3.713c-3.203,1.817-5,5.16-5,8.599c0,1.652,0.414,3.327,1.287,4.868l30.761,54.183  c-5.358,4.797-11.729,8.569-18.865,10.947c-5.175,1.723-7.972,7.314-6.249,12.494c1.723,5.176,7.316,7.973,12.492,6.248  c8.352-2.781,15.938-6.957,22.545-12.211l26.745,47.107H21.616V75.683C21.616,63.803,25.421,52.537,32.615,43.104z"/>
</svg>