<svg height="230" style="background-color:rgba(0,0,0,0)" viewBox="0 0 230 230" width="230" xmlns="http://www.w3.org/2000/svg" xmlns:xlink="http://www.w3.org/1999/xlink"><mask id="a" fill="#fff"><path d="m.00012524 0h229.57857476v229.255h-229.57857476z" fill="#fff" fill-rule="evenodd"/></mask><path d="m114.6327 51.5539c-10.616 18.371-20.763 35.93-31.196 53.986h62.404c-10.462-18.098-20.609-35.651-31.208-53.986m1.209-34.148c1.013 3.422 80.634 141.743 83.519 145.091 14.416-21.572 19.945-60.835 1.068-94.971-20.827-37.662-59.651-51.439-84.587-50.12m-90.371 56.982c-9.313 20.615-11.191 41.997-5.781 63.958 2.122 8.616 5.25 16.845 10.297 24.939 28.318-48.98 56.219-97.236 84.287-145.782-27.145-1.655-69.546 14.261-88.803 56.885m45.868 52.133c-8.29 14.475-16.729 28.866-25.109 43.289-1.716 2.954-3.388 5.937-5.025 8.81 14.201 18.862 44.482 33.017 64.679 32.652-.022-29.185.041-58.38-.045-87.935h-4.337c-8.228 0-16.458.102-24.682-.058-2.702-.053-4.166.947-5.481 3.242m82.017-3.212221c-8.718.068221-17.437.017221-26.155.045221-1.166.004-2.332.219-3.552.342v88.233c26.097-3.005 47.515-13.663 64.396-32.874-.209-.739-.229-.998-.348-1.201-10.067-17.413-20.168-34.808-30.185-52.25-1.004-1.749-2.239-2.308-4.156-2.295221m-38.544-123.30882728c64.853.05804828 114.631 52.30904828 114.767 114.86204828-.037 62.937-51.729 114.592-114.914 114.393573-31.247-.101573-58.442-11.111573-80.682-33.113573-25.438-25.165-36.162-56.035-33.618-91.544 3.885-54.229 50.006-104.655 114.447-104.59804828" fill="#ffffff" fill-rule="evenodd" mask="url(#a)"/></svg>