<?xml version="1.0" encoding="UTF-8"?>
<svg width="18px" height="22px" viewBox="0 0 18 22" version="1.1" xmlns="http://www.w3.org/2000/svg" xmlns:xlink="http://www.w3.org/1999/xlink">
    <title>小灯泡-未点击</title>
    <g id="小灯泡-未点击" stroke="none" stroke-width="1" fill="none" fill-rule="evenodd">
        <g id="编组备份-2" transform="translate(1.000000, 1.000000)" fill-rule="nonzero">
            <path d="M9.68541667,19.1709954 C10.0678241,19.1709954 10.3778472,19.4268404 10.3778472,19.7424144 C10.3778472,20.0534982 10.0766204,20.3065345 9.70175926,20.3136997 L9.68539352,20.3138525 L6.27650463,20.3138525 C5.89409722,20.3138525 5.58407407,20.0580075 5.58407407,19.7424144 C5.58407407,19.4313497 5.88530093,19.1783134 6.26016204,19.1711482 L6.27650463,19.1709954 L9.68541667,19.1709954 L9.68541667,19.1709954 Z" id="路径" fill="#8C92A4"></path>
            <path d="M10.6175463,17.2178241 C10.9999537,17.2178241 11.3099769,17.4736648 11.3099769,17.7892526 C11.3099769,18.1003122 11.00875,18.3533442 10.6338889,18.3605093 L10.6175463,18.3606812 L5.30840278,18.3606812 C4.92599537,18.3606812 4.61597222,18.1048405 4.61597222,17.7892526 C4.61597222,17.478174 4.91719907,17.225142 5.29206019,17.2179769 L5.30840278,17.2178241 L10.6175463,17.2178241 Z" id="路径" fill="#8C92A4"></path>
            <path d="M8,0 C12.4182791,0 16,3.43818224 16,7.67936319 C16,10.3614588 14.5676047,12.7224264 12.3970698,14.0957835 L12.3457907,14.3276424 C12.3104651,14.4858172 12.2637209,14.6929138 12.2055581,14.9489543 C12.0677209,15.5559091 11.5125116,15.9905774 10.8672791,16 L5.12183721,16 C4.4585814,16 3.88751163,15.5505726 3.75751163,14.9262239 L3.69339535,14.6219316 C3.61616279,14.2604337 3.57186047,14.0760452 3.56048837,14.0687438 C1.41374419,12.6915685 0,10.3439533 0,7.67936319 C0,3.43818224 3.58172093,0 8,0 Z" id="路径" stroke="#8C92A4" stroke-width="1.12"></path>
            <path d="M7.32196759,3.65391204 C7.39212963,4.02976852 7.14428241,4.39131944 6.76835648,4.46148148 C5.1119213,4.77060185 4.36608796,5.79708333 4.26006944,7.71622685 C4.23898148,8.09798611 3.91233796,8.39037037 3.53050926,8.36928241 C3.14865741,8.34819444 2.8562037,8.02162037 2.87731481,7.63988426 C3.01601852,5.12916667 4.1725463,3.53743056 6.51423611,3.10041667 C6.89016204,3.03027778 7.25178241,3.27805556 7.32196759,3.65391204 Z" id="路径" fill="#8C92A4"></path>
        </g>
    </g>
</svg>